# xmcd
#
# Track frame offsets:
#	150
#	16234
#	30693
#	42273
#	58004
#	67088
#	95204
#	105219
#	114836
#	125230
#	134652
#	146350
#
# Disc length: 2117 seconds
#
# Revision: 1
# Processed by: cddbd v1.4PL0 Copyright (c) Steve Scherf et al.
# Submitted via: audiograbber 1.81.01
#
DISCID=ab08430c
DTITLE=Restoration Hardware - Fly Me To The Moon
DYEAR=2003
DGENRE=Blues
TTITLE0=Dinah Washington - Me and My Gin
TTITLE1=Nat King Cole and His Trio - Don't Let It Go To Your Head
TTITLE2=Julie London - Fly Me To The Moon
TTITLE3=Johnny Hartman - Nature Boy
TTITLE4=Sara Vaughan - Them There Eyes
TTITLE5=Ernestine Anderson with the Clayton-Hamilton Jazz Orchestra - One Mint 
TTITLE5=Julep
TTITLE6=Paul Anka - Adam And Eve
TTITLE7=Ann-Margret - There'll Be Some Changes Made
TTITLE8=Eartha Kitt - My Heart's Delight
TTITLE9=Bobby Darin - Call Me Irresponsible
TTITLE10=Nancy Wilson - You'd Be So Nice To Come Home To
TTITLE11=Wayne Newton - L-O-V-E
EXTD=
EXTT0=
EXTT1=
EXTT2=
EXTT3=
EXTT4=
EXTT5=
EXTT6=
EXTT7=
EXTT8=
EXTT9=
EXTT10=
EXTT11=
PLAYORDER=
